# Blender 4.0.1
# www.blender.org
mtllib mouse.mtl
o Cube
v 0.726226 0.342504 -0.724963
v 1.000000 -0.608073 -1.000000
v 0.726226 0.342504 0.727209
v 1.000000 -0.608073 1.000000
v -0.725945 0.342504 -0.724963
v -1.000000 -0.608073 -1.000000
v -0.725945 0.342504 0.727209
v -1.000000 -0.608073 1.000000
v 1.000000 0.000000 -1.000000
v -1.000000 0.000000 1.000000
v 1.000000 0.000000 1.000000
v -1.000000 0.000000 -1.000000
v -1.838435 -0.608073 0.016404
v 0.908310 0.342504 0.013034
v -1.334722 0.342504 0.013034
v 1.411743 -0.608073 0.016404
v 1.411743 0.000000 0.016404
v -1.838435 0.000000 0.016404
v 0.002050 -0.608073 -1.000000
v 0.001629 0.342504 0.727209
v 0.002050 -0.608073 1.000000
v 0.001629 0.342504 -0.724963
v 0.002050 0.000000 -1.000000
v 0.002050 0.000000 1.000000
v 0.003768 -0.608073 0.016404
v 0.003768 0.608263 0.016404
vn -0.1244 0.9645 0.2329
vn -0.0000 0.6230 0.7822
vn -0.5117 0.7484 -0.4221
vn -0.0000 -1.0000 -0.0000
vn 0.6031 0.7693 0.2109
vn -0.0000 0.6261 -0.7797
vn -0.0000 -0.0000 -1.0000
vn 0.9224 -0.0000 0.3861
vn -0.7714 -0.0000 -0.6363
vn -0.0000 -0.0000 1.0000
vn -0.7610 -0.0000 0.6487
vn 0.9268 -0.0000 -0.3755
vn 0.6058 0.7687 -0.2051
vn -0.5054 0.7476 0.4309
vn -0.1240 0.9666 -0.2245
vn 0.1576 0.9683 -0.1936
vn 0.1581 0.9668 0.2008
vt 0.749744 0.627051
vt 0.875000 0.627051
vt 0.875000 0.750000
vt 0.749744 0.750000
vt 0.500000 0.874744
vt 0.625000 0.874744
vt 0.625000 1.000000
vt 0.500000 1.000000
vt 0.500000 0.122949
vt 0.625000 0.122949
vt 0.625000 0.250000
vt 0.500000 0.250000
vt 0.250256 0.627051
vt 0.375000 0.627051
vt 0.375000 0.750000
vt 0.250256 0.750000
vt 0.500000 0.627051
vt 0.625000 0.627051
vt 0.625000 0.750000
vt 0.500000 0.750000
vt 0.500000 0.375256
vt 0.625000 0.375256
vt 0.625000 0.500000
vt 0.500000 0.500000
vt 0.375000 0.375256
vt 0.375000 0.500000
vt 0.375000 0.122949
vt 0.375000 0.250000
vt 0.375000 0.874744
vt 0.375000 1.000000
vt 0.375000 0.000000
vt 0.500000 0.000000
vt 0.250256 0.500000
vt 0.625000 0.000000
vt 0.749744 0.500000
vt 0.875000 0.500000
vt 0.125000 0.500000
vt 0.125000 0.627051
vt 0.125000 0.750000
s 0
usemtl Material
f 26/1/1 15/2/1 7/3/1 20/4/1
f 24/5/2 20/6/2 7/7/2 10/8/2
f 18/9/3 15/10/3 5/11/3 12/12/3
f 25/13/4 16/14/4 4/15/4 21/16/4
f 17/17/5 14/18/5 3/19/5 11/20/5
f 23/21/6 22/22/6 1/23/6 9/24/6
f 19/25/7 23/21/7 9/24/7 2/26/7
f 16/14/8 17/17/8 11/20/8 4/15/8
f 13/27/9 18/9/9 12/12/9 6/28/9
f 21/29/10 24/5/10 10/8/10 8/30/10
f 8/31/11 10/32/11 18/9/11 13/27/11
f 2/26/12 9/24/12 17/17/12 16/14/12
f 9/24/13 1/23/13 14/18/13 17/17/13
f 19/33/4 2/26/4 16/14/4 25/13/4
f 10/32/14 7/34/14 15/10/14 18/9/14
f 22/35/15 5/36/15 15/2/15 26/1/15
f 1/23/16 22/35/16 26/1/16 14/18/16
f 6/37/4 19/33/4 25/13/4 13/38/4
f 4/15/10 11/20/10 24/5/10 21/29/10
f 6/28/7 12/12/7 23/21/7 19/25/7
f 12/12/6 5/11/6 22/22/6 23/21/6
f 13/38/4 25/13/4 21/16/4 8/39/4
f 11/20/2 3/19/2 20/6/2 24/5/2
f 14/18/17 26/1/17 20/4/17 3/19/17
